<?xml version="1.0" standalone="no"?><!DOCTYPE svg PUBLIC "-//W3C//DTD SVG 1.1//EN" "http://www.w3.org/Graphics/SVG/1.1/DTD/svg11.dtd"><svg t="1742354356478" class="icon" viewBox="0 0 1383 1024" version="1.1" xmlns="http://www.w3.org/2000/svg" p-id="6271" xmlns:xlink="http://www.w3.org/1999/xlink" width="270.1171875" height="200"><path d="M1350.381383 600.730838c-11.398631-23.367193-26.97676-43.694752-46.54441-60.982676-19.56765-17.287924-42.364912-31.156258-68.581763-41.225048-26.216851-10.258768-54.333474-15.198175-84.349869-15.198175s-58.133018 5.129384-84.539846 15.198175c-26.406828 10.258768-49.394067 23.937125-68.961717 41.225048-19.56765 17.287924-35.145779 37.615482-46.54441 60.982676-11.398631 23.367193-17.097946 48.254204-17.097946 74.661032 0 3.039635 0 5.889293 0.379954 8.548974 0.189977 2.659681 0.379954 5.509338 0.379955 8.548973 3.419589 31.726189 10.638722 62.122539 22.22733 91.379025s26.026874 57.373109 43.694752 84.539846c17.667878 27.166737 37.995436 53.193611 61.172653 78.080622s47.87425 48.634159 74.661032 71.241443c3.799544 4.179498 8.73895 6.269247 15.008198 6.269247 5.889293 0 10.638722-2.089749 14.438266-6.269247a877.694582 877.694582 0 0 0 74.281078-70.671512c22.797262-24.507057 43.12482-49.963999 60.602721-76.560804 17.477901-26.596806 31.916167-54.333474 43.314798-83.020029 11.398631-28.876532 18.997718-58.892927 22.797262-90.239162 0.379954-3.799544 0.759909-7.40911 0.949885-10.828699a168.072813 168.072813 0 0 0-16.717992-85.489732z m-94.038705 170.029578H1082.89351v-165.660103h78.460576V703.128539h95.178569v67.631877z" fill="#FE9025" p-id="6272"></path><path d="M142.506458 361.169611c295.414519 121.775374 389.833178 159.390856 455.565283 189.407251 65.732105 30.016395 112.656469 29.256486 177.628665 5.129384 65.162174-24.697034 374.065072-137.353503 527.756613-210.874673 102.777656-49.394067 109.23688-80.740302-1.899772-122.345305-144.382659-54.713429-383.183977-143.242795-510.088735-190.737091C716.617503 1.16285 676.912271-15.175187 607.950554 19.40066 484.84534 70.314545 203.67911 175.751881 64.425836 233.694922c-121.775374 52.62368-39.705231 70.291557-5.889293 91.758979v228.352573L10.472316 601.870701l100.117975 104.107496 101.447815-101.447816-69.721626-63.072424V361.169611z" fill="#2F85FC" p-id="6273"></path><path d="M847.891736 741.123976c0-45.214569 10.448745-87.959435 28.686554-126.334827-25.076988 8.358996-51.103862 17.097946-78.270599 26.406829-67.061945 24.127102-152.931632 32.486098-214.674216 0-71.621398-29.256486-167.939829-78.080622-272.617257-122.915237v361.146623s136.023663 144.382659 374.065072 144.382659c111.706583 0 200.995859-27.356714 266.34801-58.133018-63.262402-54.143497-103.537564-134.503845-103.537564-224.363052z" fill="#2F85FC" p-id="6274"></path></svg>